<svg xmlns="http://www.w3.org/2000/svg" viewBox="0 0 386.53 320.37"><defs><style>.cls-1{isolation:isolate;}.cls-2,.cls-3{fill:#fff;}.cls-3{opacity:0.35;mix-blend-mode:lighten;}</style></defs><title>LogoNew</title><g class="cls-1"><g id="Laag_1" data-name="Laag 1"><path class="cls-2" d="M326.65,133.38A133.38,133.38,0,1,1,193.27,0,133.38,133.38,0,0,1,326.65,133.38ZM159.05,167.6V220a10.26,10.26,0,0,0,10.26,10.27h47.91A10.27,10.27,0,0,0,227.49,220V167.6H279.9a10.26,10.26,0,0,0,10.26-10.26V109.43A10.26,10.26,0,0,0,279.9,99.16H227.49V46.75a10.27,10.27,0,0,0-10.27-10.27H169.31a10.26,10.26,0,0,0-10.26,10.27V99.16H106.63a10.27,10.27,0,0,0-10.26,10.27v47.91a10.27,10.27,0,0,0,10.26,10.26Z"/><path class="cls-3" d="M40,83.31q7.34-5.91,17.4-14.54c2.44-2.12,4.43-3.94,6-5.45a20.85,20.85,0,0,0,3.89-5.46,63.71,63.71,0,0,0,3.21-8Q72.05,45.14,74.8,37h-.46a31.08,31.08,0,0,1-8,11.36,120.61,120.61,0,0,1-10.53,8,101,101,0,0,0-11.43,9.09A48.94,48.94,0,0,0,34.09,79.68v-.46q4.08-11.81,6.14-20t3.63-14.32A46,46,0,0,1,48,34.23,27.84,27.84,0,0,1,55.9,25.6v-.46q-12.26,3.18-20,14.54a44.14,44.14,0,0,0-7.75,25.46V97A50.74,50.74,0,0,1,40,83.31Zm21.5-38.86A154.32,154.32,0,0,0,73.11,31q5.22-6.79,10-12.94A75.13,75.13,0,0,1,93.79,7l-.45-.45A26.41,26.41,0,0,1,83.1,12a57.67,57.67,0,0,0-12.95,5.92Q63.34,22,57,30.82T46.07,57A87.22,87.22,0,0,0,61.51,44.45Zm-51,118.85A139,139,0,0,0,20.7,176.71a102.43,102.43,0,0,1,11.09,16.13h.35a45.86,45.86,0,0,1-.58-7.27V179.2q0-3.63,2.57-12t5.39-18.63q2.79-10.23,4.9-20.68a61.63,61.63,0,0,0,1.19-18.64h-.46a39.14,39.14,0,0,1-4.81,11.59c-2.29,3.79-4.64,7.73-7.09,11.82a89.41,89.41,0,0,0-6.41,13.18A41.62,41.62,0,0,0,24.1,161a35.53,35.53,0,0,0,1.09,7.49,44.16,44.16,0,0,1,1.09,5.69h-.46a112.43,112.43,0,0,0-5.1-19.09q-3.33-9.09-6.65-16.81T8.53,124.22a33.4,33.4,0,0,1-2.22-10.47,69.75,69.75,0,0,1,.29-7.26,67.22,67.22,0,0,0,.29-6.82H6.4a113.28,113.28,0,0,0-3.65,11.82A57.37,57.37,0,0,0,.57,126q0,13.64,2.72,22A61.67,61.67,0,0,0,10.52,163.3ZM93.26,286.48a47.91,47.91,0,0,0,5,.23,48.67,48.67,0,0,0,6.81-.45c2.11-.31,4.84-.75,8.17-1.37s7.65-1.59,12.94-3,12.33-3.1,21.12-5.22q-8.64-2.26-15-4.3a34.28,34.28,0,0,1-12.71-7.91q-7.71-6.78-15.44-14c-4-3.75-8.23-7.27-12.3-11-1.14-1-7.11-6.3-8.83-8l-.46.46c.7,1.09,6.29,12.35,6.29,12.35s.88,1.2,1.24,1.85c1.52,2.7,3,5.4,4.47,8.12.58,1.07,1.15,2.15,1.7,3.24a25.2,25.2,0,0,0,7.55,8.82q5.78,5.43,19.1,9.5v.45c-3.86-.6-7.11-1.13-9.77-1.58s-5.12-.82-7.33-1.13-4.43-.52-6.66-.68c-2.72-.18-5.5-.33-8.19-.74-2.14-.33-4.24-.72-6.39-1l-6.31-.72L75,270.07a78.24,78.24,0,0,1-11.42-2,39.58,39.58,0,0,1-10.29-4.32,66,66,0,0,1-10.95-8.41l-.46.46a54.86,54.86,0,0,0,6.16,8.64,72.09,72.09,0,0,0,9.6,9.15,54.78,54.78,0,0,0,13.48,7.84A71.78,71.78,0,0,0,88.94,286S91.82,286.35,93.26,286.48ZM22.38,144.21H23a44.91,44.91,0,0,1,1.33-7.27,38.91,38.91,0,0,1,3.37-7.72,112.59,112.59,0,0,1,7-10.91q4.48-6.37,12.12-17.28a59.11,59.11,0,0,0,7.18-15.9c1.79-6.06,3-10.45,3.6-13.18h-.45a18.76,18.76,0,0,1-2,3.86,46.07,46.07,0,0,1-2.91,3.63c-1.21,1.37-2.77,3-4.72,4.78s-4.56,4.25-7.85,7.28q-9,8.18-11.69,15a97.91,97.91,0,0,0-4.48,15H23c.18-2.42.33-4.76.42-7s.15-5.22.15-8.86c0-4.53-.29-9.84-.87-15.9S21.81,75.74,21.81,66A21.23,21.23,0,0,1,23.6,57.4c1.19-2.72,2.24-5.3,3.14-7.72h-.46Q16.64,62,13.2,72.63A68.47,68.47,0,0,0,9.76,93.76a65.42,65.42,0,0,0,4.67,23.86A188.29,188.29,0,0,1,22.38,144.21ZM69.73,261.92l19,4.16,9.87,2.27c-3.51-3-9.66-12.8-9.66-12.8A63.79,63.79,0,0,1,83,243.06q-2.74-7.5-7.75-19.77a57.77,57.77,0,0,0-3-7.28c-1.06-2.11-2.29-4.31-3.65-6.58s-3-4.84-5-7.72S59.14,195.27,56.1,191l-.45.46Q57,196,59.5,207.84t4.77,22.27a34.29,34.29,0,0,0,6.12,14.31,83.9,83.9,0,0,0,12.48,13.41l-.45.46q-3.21-.92-11-7.28A79.33,79.33,0,0,0,55,240.56a250.49,250.49,0,0,1-27.17-15.23,41.08,41.08,0,0,1-14.84-18l-.46.46A68,68,0,0,0,21,228.29,72.12,72.12,0,0,0,34.5,244.2a78.6,78.6,0,0,0,16.93,11.35A72.7,72.7,0,0,0,69.73,261.92ZM27.22,215.11l33.57,22.26q-2.22-4.55-3.77-8.63a49.73,49.73,0,0,1-2.45-9.08q-.89-5-1.55-11.14t-1.55-14.78q-1.77-15-3.11-23.17a96,96,0,0,0-4.87-17.73H43A109.5,109.5,0,0,1,42.35,166a85.18,85.18,0,0,1-1.81,10c-.76,3-1.37,5.82-1.81,8.4A50.89,50.89,0,0,0,38,193.3q0,5,2.93,12.94a111.94,111.94,0,0,0,5.55,13l-.45.46a132.85,132.85,0,0,0-15.2-20.23q-7.49-8-13.62-14.55A106.62,106.62,0,0,1,6.82,171.94,37.44,37.44,0,0,1,1.15,156a39.36,39.36,0,0,0-.86,4.33A29.7,29.7,0,0,0,0,164.66a48.07,48.07,0,0,0,2.72,15.68,76.69,76.69,0,0,0,6.8,14.78,74.73,74.73,0,0,0,8.85,12A49.52,49.52,0,0,0,27.22,215.11Zm276.21-197q4.77,6.14,10,12.94A154.22,154.22,0,0,0,325,44.5,87.75,87.75,0,0,0,340.47,57q-4.55-17.26-10.91-26.12t-13.18-13A57.4,57.4,0,0,0,303.43,12,26.51,26.51,0,0,1,293.2,6.56l-.46.46A73.19,73.19,0,0,1,303.43,18.16Zm29.8,245.61A39.48,39.48,0,0,1,323,268.08a78.59,78.59,0,0,1-11.43,2.05l-3.26.36-6.31.73c-2.15.25-4.25.64-6.39,1-2.69.41-5.47.56-8.18.74-2.22.16-4.44.38-6.67.69s-4.65.68-7.32,1.12-5.92,1-9.77,1.58v-.44q13.32-4.08,19.09-9.51a24.91,24.91,0,0,0,7.55-8.82c.56-1.08,1.13-2.16,1.7-3.24,1.45-2.71,3-5.41,4.47-8.11.36-.65,1.24-1.86,1.24-1.86s5.6-11.25,6.29-12.35l-.46-.46c-1.72,1.73-7.69,7-8.83,8-4.07,3.7-8.29,7.21-12.3,11q-7.71,7.23-15.44,14a34.58,34.58,0,0,1-12.71,7.92q-6.34,2-15,4.29Q252.41,280,260.35,282t12.94,2.95c3.33.62,6.06,1.06,8.17,1.37a47.19,47.19,0,0,0,6.81.45c1.82,0,3.49-.07,5-.22s4.31-.47,4.31-.47a71.43,71.43,0,0,0,17.82-4.63,54.56,54.56,0,0,0,13.47-7.83,72.13,72.13,0,0,0,9.6-9.16,54.17,54.17,0,0,0,6.16-8.63l-.45-.46A66.45,66.45,0,0,1,333.23,263.77Zm25.47-38.39a251.77,251.77,0,0,1-27.18,15.23,79.08,79.08,0,0,0-16.45,10.46q-7.76,6.38-10.95,7.26l-.46-.45a82.17,82.17,0,0,0,12.48-13.41,34.3,34.3,0,0,0,6.13-14.31q2.26-10.44,4.77-22.26t3.84-16.37l-.45-.45q-4.56,6.36-7.52,10.68t-5,7.72c-1.36,2.28-2.58,4.47-3.65,6.59a56.77,56.77,0,0,0-3,7.27q-5,12.28-7.75,19.77a64.46,64.46,0,0,1-5.94,12.5s-6.15,9.83-9.66,12.8l9.88-2.27,19-4.16a73,73,0,0,0,18.29-6.37A78.72,78.72,0,0,0,352,244.26a71.89,71.89,0,0,0,13.5-15.91A68.36,68.36,0,0,0,374,207.9l-.46-.47A41.07,41.07,0,0,1,358.7,225.38Zm13.77-87q-3.33,7.72-6.66,16.81a113.63,113.63,0,0,0-5.1,19.09h-.46a44.16,44.16,0,0,1,1.09-5.68,35.18,35.18,0,0,0,1.1-7.5,41.66,41.66,0,0,0-2.75-15.23,88.42,88.42,0,0,0-6.41-13.18c-2.44-4.08-4.8-8-7.1-11.81a39.65,39.65,0,0,1-4.8-11.59h-.46a61.68,61.68,0,0,0,1.2,18.64q2.08,10.44,4.89,20.67t5.39,18.63q2.58,8.43,2.57,12v6.37a45.66,45.66,0,0,1-.57,7.27h.34a102.9,102.9,0,0,1,11.09-16.13A135.75,135.75,0,0,0,376,163.36a61.74,61.74,0,0,0,7.23-15.24q2.73-8.4,2.72-22a57.44,57.44,0,0,0-2.18-14.55,111.63,111.63,0,0,0-3.65-11.82h-.48c0,2.73.1,5,.28,6.82a70.17,70.17,0,0,1,.29,7.28A33,33,0,0,1,378,124.27Q375.79,130.65,372.47,138.36Zm-13.82-31.81Q356,99.73,347,91.55,342,87,339.11,84.28c-1.94-1.82-3.51-3.42-4.72-4.78s-2.15-2.57-2.91-3.63a18.37,18.37,0,0,1-2-3.87H329q.9,4.09,3.59,13.18a59.32,59.32,0,0,0,7.18,15.91q7.65,10.91,12.13,17.27a116.76,116.76,0,0,1,7,10.91,38.57,38.57,0,0,1,3.37,7.72,44,44,0,0,1,1.34,7.27h.57a187.72,187.72,0,0,1,8-26.58,65.5,65.5,0,0,0,4.67-23.86,68.43,68.43,0,0,0-3.45-21.13q-3.43-10.69-13.08-23h-.45q1.33,3.65,3.14,7.73a21.16,21.16,0,0,1,1.79,8.64q0,14.55-.86,23.63T363,105.64c0,3.64.06,6.59.15,8.85s.24,4.63.43,7.05h-.45A96.6,96.6,0,0,0,358.65,106.55ZM338.58,34.28A46.46,46.46,0,0,1,342.68,45q1.57,6.13,3.62,14.32t6.14,20v.45a48.57,48.57,0,0,0-10.29-14.31,101.1,101.1,0,0,0-11.43-9.1,120.61,120.61,0,0,1-10.53-8,31,31,0,0,1-8-11.36h-.46l4.35,13a61.36,61.36,0,0,0,3.21,8,20.7,20.7,0,0,0,3.88,5.45c1.53,1.52,3.52,3.34,5.95,5.45q10.08,8.63,17.4,14.54A50.76,50.76,0,0,1,358.42,97V65.19a44.07,44.07,0,0,0-7.76-25.46q-7.76-11.34-20-14.54v.46A27.94,27.94,0,0,1,338.58,34.28ZM286,295.77a38,38,0,0,1-7.51-.68q-3.42-.68-8.41-1.59v.12c-2.7-.89-5.75-1.92-9.15-3.12s-7.69-2.73-12.55-4.56q-12.78-4.54-19.4-6.83a40,40,0,0,0-13-2.28,62.78,62.78,0,0,0-13.25,1.59c-4.53,1-7.82,1.77-10,2.36-1.89-.59-5.06-1.38-9.55-2.36A62.08,62.08,0,0,0,170,276.83a39.87,39.87,0,0,0-12.94,2.26q-6.59,2.27-19.3,6.76-15,5.41-22.25,7.67a50.3,50.3,0,0,1-15,2.25,43.92,43.92,0,0,1-6.37-.45A23.72,23.72,0,0,1,88.73,294s-4.28-1.24-6.63-2.25-5.32-2.36-8.67-3.88l-.46.45c4.86,5.47,16,12.26,16,12.26q12.6,7.29,25.21,7.29a63.81,63.81,0,0,0,9.77-.68,37.19,37.19,0,0,0,8.62-2.5q4.31-1.8,9.53-4.52t12.49-7.24q7.73-5,12.94-7.94a24.09,24.09,0,0,1,12-2.94,17.07,17.07,0,0,1,5.45.91q-9.09,4.95-20.68,11.94a105.71,105.71,0,0,0-22.5,18.71l7.73,6.81a166.68,166.68,0,0,1,22.26-21.76q11.93-9.72,20.94-13,9,3.25,21.12,13a161.15,161.15,0,0,1,22.5,21.76l7.72-6.81a103.3,103.3,0,0,0-22.72-18.71q-11.82-7-20.91-11.94a25.65,25.65,0,0,1,5.94-.91,24.32,24.32,0,0,1,12.09,2.94q5.25,3,13,7.94,6.84,4.06,11.86,7a57.7,57.7,0,0,0,9.35,4.53,67.76,67.76,0,0,0,8.45,2.5,42.17,42.17,0,0,0,8.92.89h1.82a55.11,55.11,0,0,0,20.7-4.54,53.89,53.89,0,0,0,20.25-15v-.44a144.32,144.32,0,0,1-15,6.17A38.24,38.24,0,0,1,286,295.77Zm100.54-131.9c0-.47,0-1-.05-1.4,0-.72-.12-1.43-.21-2.11-.2-1.37-.49-2.81-.86-4.32A37.71,37.71,0,0,1,379.73,172a109.31,109.31,0,0,1-10.41,12.94c-.23.26-.48.53-.73.79q-5.85,6.3-12.92,13.8a132.07,132.07,0,0,0-15,19.85l-.13-.12a94.81,94.81,0,0,0,5.33-13q2.7-8,2.71-12.95a51.84,51.84,0,0,0-.69-8.86c-.45-2.58-1-5.37-1.59-8.4s-1.14-6.36-1.59-10a109.62,109.62,0,0,1-.68-13.19h-.45l-.12.3v-.26h-.45a95.35,95.35,0,0,0-4.88,17.74q-1.32,8.18-3.11,23.16-.88,8.64-1.55,14.79T332,219.71a49.52,49.52,0,0,1-2.44,9.08c-.89,2.33-2,4.79-3.17,7.34-.24.42-.46.83-.71,1.26l.18-.12-.08.16L337,230l22.7-14.83a49.94,49.94,0,0,0,8.86-8,66.3,66.3,0,0,0,8.64-12,86.52,86.52,0,0,0,4.31-8.86c.82-1.91,1.6-3.85,2.29-5.88a48.27,48.27,0,0,0,2.71-15.68v-.05C386.53,164.4,386.51,164.13,386.51,163.87Zm-57-32.82"/></g></g></svg>